<?xml version="1.0" standalone="no"?>
<!DOCTYPE svg PUBLIC "-//W3C//DTD SVG 20010904//EN"
 "http://www.w3.org/TR/2001/REC-SVG-20010904/DTD/svg10.dtd">
<svg version="1.0" xmlns="http://www.w3.org/2000/svg"
 width="584.000000pt" height="288.000000pt" viewBox="0 0 584.000000 288.000000"
 preserveAspectRatio="xMidYMid meet">

<g transform="translate(0.000000,288.000000) scale(0.100000,-0.100000)"
fill="#000000" stroke="none">
<path d="M3230 2692 l-35 -7 -3 -352 c-1 -194 1 -353 5 -352 5 0 289 141 632
313 l624 313 -138 6 c-76 4 -188 8 -249 9 -83 1 -100 3 -66 8 31 5 36 7 17 8
-16 1 -25 6 -22 12 3 6 57 11 123 11 l117 1 -125 14 c-136 15 -824 27 -880 16z"/>
<path d="M2906 2673 c-4 -5 -92 -10 -194 -13 l-187 -5 -3 -447 -2 -448 -1140
0 -1140 0 0 -110 c0 -112 7 -129 38 -98 9 9 12 4 12 -23 0 -20 3 -38 6 -42 4
-3 8 -23 10 -44 2 -21 5 -57 7 -80 3 -24 1 -43 -4 -43 -11 0 -29 67 -29 107 0
22 -6 36 -20 43 -18 9 -19 8 -15 -17 6 -37 25 -182 25 -194 0 -5 440 -9 1125
-9 l1125 0 0 -430 c0 -337 3 -430 13 -430 8 0 7 -4 -3 -10 -13 -8 -12 -10 3
-10 9 0 17 -4 17 -10 0 -5 -7 -10 -15 -10 -21 0 -19 -28 3 -33 9 -2 45 -3 79
-3 50 1 63 -2 63 -14 1 -12 3 -11 11 3 7 11 22 17 47 17 34 -1 35 -2 16 -13
-19 -11 -20 -14 -7 -26 8 -7 34 -14 56 -15 23 -1 47 -5 54 -9 6 -4 13 -3 15 2
5 14 98 20 98 6 0 -12 21 -25 41 -25 5 0 9 205 9 505 l0 505 1121 0 c744 0
1118 3 1114 10 -3 5 2 10 12 10 14 0 13 3 -6 16 l-24 17 24 13 c23 13 22 13
-18 14 -41 0 -42 1 -39 29 2 15 6 33 10 40 4 6 2 11 -3 11 -12 0 -15 63 -4 74
4 3 8 12 10 19 14 67 25 95 45 110 18 15 23 31 26 83 l4 64 -1136 0 -1136 0 0
460 0 460 -53 0 c-30 0 -57 -3 -61 -7z"/>
<path d="M2140 2629 c-85 -3 -213 -14 -285 -23 -224 -29 -329 -40 -372 -39
-24 0 -43 -3 -43 -7 0 -4 -37 -12 -82 -18 -77 -11 -97 -17 -87 -26 2 -2 244
-124 537 -270 l532 -266 0 330 0 330 -22 -2 c-13 -1 -93 -5 -178 -9z"/>
<path d="M4650 2606 c-25 -7 -63 -22 -85 -34 l-40 -21 35 0 c54 -1 80 9 80 30
0 18 9 19 118 20 64 0 126 4 137 9 32 14 -194 10 -245 -4z"/>
<path d="M4670 2575 c-11 -13 -8 -15 15 -15 23 0 26 2 15 15 -7 8 -14 15 -15
15 -1 0 -8 -7 -15 -15z"/>
<path d="M611 2563 c7 -10 28 -35 46 -56 57 -64 36 -61 -29 5 -34 35 -58 56
-53 48 17 -30 60 -85 76 -97 20 -15 30 -61 15 -67 -6 -3 0 -4 14 -3 14 1 24
-3 23 -8 -1 -6 191 -108 427 -228 l428 -218 160 3 160 3 -479 243 c-321 163
-488 243 -507 242 -46 -3 -54 -1 -49 14 4 10 1 13 -8 10 -21 -8 -41 6 -24 17
10 6 6 9 -13 9 -16 0 -28 6 -28 13 0 7 -20 23 -45 35 -37 18 -45 19 -45 7 0
-22 -8 -19 -37 15 -26 32 -55 43 -32 13z"/>
<path d="M4500 2531 c-14 -3 -288 -139 -610 -301 l-585 -295 155 -3 155 -3
540 269 c531 265 539 270 505 280 l-35 10 30 2 c17 1 24 4 15 7 -8 4 -20 12
-27 19 -7 7 -21 10 -32 7 -10 -3 -22 0 -25 6 -8 12 -45 13 -86 2z"/>
<path d="M515 2510 c7 -22 55 -78 55 -64 0 9 -51 84 -57 84 -2 0 -1 -9 2 -20z"/>
<path d="M4708 2513 c6 -2 18 -2 25 0 6 3 1 5 -13 5 -14 0 -19 -2 -12 -5z"/>
<path d="M269 2462 c32 -27 33 -30 15 -40 -18 -10 -18 -11 0 -31 21 -23 8 -28
-25 -11 -26 15 -26 -13 1 -40 24 -24 28 -49 5 -30 -24 20 -29 4 -11 -40 20
-50 20 -61 1 -36 -13 18 -15 3 -15 -137 l0 -157 573 1 572 0 -408 205 c-224
112 -412 202 -416 199 -5 -2 -15 2 -22 11 -17 20 -65 45 -73 37 -3 -4 -16 3
-29 14 -12 11 -48 32 -79 46 -47 21 -56 22 -51 9 6 -16 5 -16 -13 -1 -10 9
-28 19 -39 23 -13 4 -8 -4 14 -22z"/>
<path d="M4950 2320 c34 -7 33 -7 -14 -9 -43 -1 -96 -25 -405 -182 -196 -100
-360 -185 -365 -190 -6 -5 224 -9 557 -9 484 0 567 2 567 14 0 8 -8 17 -17 19
-17 4 -17 5 0 6 15 1 17 13 17 111 l0 109 -31 8 c-39 11 -38 26 3 35 20 4 4 5
-37 3 l-70 -4 68 17 c37 9 67 20 67 24 0 12 -90 21 -154 15 -65 -6 -128 2
-126 17 3 15 -23 26 -60 25 l-35 -2 35 -7z"/>
<path d="M240 956 c0 -140 1 -141 84 -130 23 3 59 1 81 -4 l40 -10 -55 -2 -55
-2 39 -9 c59 -14 54 -16 -31 -13 -63 3 -77 6 -75 19 2 10 -2 13 -13 9 -9 -4
-15 -19 -15 -40 0 -40 21 -54 89 -60 53 -4 80 -9 101 -17 36 -13 69 -16 75 -7
4 6 15 6 31 0 33 -13 47 -13 39 0 -4 6 9 10 32 11 29 0 128 46 413 189 l375
189 -577 0 -578 1 0 -124z m247 -172 c-3 -3 -12 -4 -19 -1 -8 3 -5 6 6 6 11 1
17 -2 13 -5z"/>
<path d="M1446 842 c-258 -130 -463 -238 -455 -239 8 -2 64 -9 125 -17 l111
-14 504 254 504 253 -160 0 -160 1 -469 -238z"/>
<path d="M3650 1075 c0 -3 269 -140 599 -304 l599 -300 21 23 c11 12 21 32 21
44 0 11 5 24 10 27 37 23 1 45 -465 278 l-475 237 -155 0 c-85 0 -155 -2 -155
-5z"/>
<path d="M4544 879 c219 -110 399 -199 400 -197 1 2 19 37 40 79 45 91 72 104
138 69 21 -11 49 -20 61 -20 12 0 36 -9 52 -20 42 -28 55 -25 55 10 0 27 -4
31 -45 41 -24 6 -50 18 -56 25 -10 13 -5 14 32 9 24 -4 49 -8 55 -10 13 -4 19
114 7 130 -5 6 -15 10 -23 10 -8 0 -16 8 -18 18 -3 16 -1 17 16 8 30 -16 34
-14 30 17 l-3 27 -570 2 -570 2 399 -200z m735 4 c2 -2 0 -3 -6 -3 -6 0 -21 9
-34 21 l-24 20 30 -17 c17 -10 32 -19 34 -21z"/>
<path d="M1860 789 c-261 -132 -482 -243 -490 -248 -8 -5 -28 -15 -45 -22
l-30 -14 43 -3 c28 -2 42 -7 39 -15 -2 -8 -27 -11 -78 -8 -116 5 -77 -7 61
-19 69 -5 141 -13 160 -17 l35 -7 -50 -7 c-27 -4 -119 -5 -204 -2 -84 2 -163
1 -174 -3 -20 -6 -20 -7 4 -20 25 -14 111 -19 122 -7 4 3 113 5 242 4 146 -2
235 1 235 7 0 10 323 6 370 -5 l25 -6 -30 -8 c-16 -5 -142 -13 -280 -19 -327
-14 -438 -20 -444 -25 -8 -8 122 -5 447 10 288 14 510 30 519 39 2 1 2 145 1
318 l-3 316 -475 -239z m-45 -239 c-3 -5 -11 -10 -16 -10 -6 0 -7 5 -4 10 3 6
11 10 16 10 6 0 7 -4 4 -10z m-225 -10 c0 -6 -42 -10 -107 -10 -74 0 -103 3
-93 10 20 13 200 13 200 0z m187 3 c-11 -11 -178 -13 -172 -3 4 6 45 10 92 10
48 0 83 -3 80 -7z"/>
<path d="M3190 660 c0 -367 0 -370 21 -370 11 0 17 -4 14 -10 -3 -5 -4 -10 -2
-10 8 0 141 57 208 89 36 17 69 31 74 31 9 0 117 70 155 100 109 87 175 147
191 174 l19 31 -333 167 c-182 92 -335 167 -339 167 -5 1 -8 -165 -8 -369z"/>
<path d="M4044 575 c-3 -14 -4 -32 0 -40 3 -8 1 -38 -4 -67 -8 -41 -7 -56 5
-74 8 -13 15 -37 15 -54 0 -26 3 -30 19 -25 16 5 18 2 14 -15 -4 -14 -1 -20
11 -20 9 0 16 -8 16 -20 0 -16 7 -20 33 -20 52 1 74 20 82 70 1 8 7 26 12 39
l10 25 18 -28 c15 -23 16 -32 7 -47 -7 -10 -12 -28 -12 -39 0 -26 33 -27 57 0
13 13 26 17 41 13 24 -6 29 -19 10 -26 -7 -2 11 -3 40 -3 33 0 52 5 52 13 0
16 49 53 70 53 10 0 23 7 30 15 10 12 -29 34 -249 145 -144 71 -263 130 -266
130 -2 0 -7 -11 -11 -25z m150 -256 c-4 -8 0 -9 15 -4 16 5 20 3 15 -10 -4 -9
-14 -15 -23 -13 -18 4 -28 38 -11 38 6 0 8 -5 4 -11z"/>
<path d="M909 569 l-33 -17 65 -7 c35 -4 70 -12 76 -17 17 -14 149 0 135 14
-5 5 -34 13 -63 18 -30 5 -75 13 -101 18 -36 7 -53 5 -79 -9z"/>
<path d="M747 463 c-4 -3 -7 -10 -7 -14 0 -14 104 -21 170 -11 l65 10 -65 0
c-36 0 -81 5 -100 11 -40 13 -54 14 -63 4z"/>
<path d="M4590 319 c0 -5 5 -7 10 -4 6 3 10 8 10 11 0 2 -4 4 -10 4 -5 0 -10
-5 -10 -11z"/>
</g>
</svg>
